<svg width="63" height="42" viewBox="0 0 63 42" fill="none" xmlns="http://www.w3.org/2000/svg">
<path d="M28.5899 19.6123C29.1118 13.1173 34.273 7.89805 40.8261 7.37613V0.185181C30.3296 0.707104 21.9208 9.17387 21.3989 19.6123H28.5899Z" fill="#035171"/>
<path d="M42.9718 7.37613C49.4668 7.89805 54.6861 13.1173 55.208 19.6123H62.3989C61.877 9.17387 53.4102 0.707104 42.9718 0.185181V7.37613Z" fill="#035171"/>
<path d="M40.8261 33.9943C34.331 33.4723 29.1698 28.3111 28.5899 21.816H21.3989C21.5729 25.4695 22.7907 28.949 24.6465 31.8486L22.9067 37.4158L28.5319 36.2559C31.8954 39.1555 36.1288 40.9532 40.8261 41.1852V33.9943Z" fill="#035171"/>
<path d="M55.15 21.7581C54.6281 28.2531 49.4088 33.4144 42.9138 33.9363V41.1272C53.3523 40.6053 61.761 32.1965 62.3409 21.7581H55.15V21.7581Z" fill="#035171"/>
<path d="M9.62659 11.1456V19.6123H17.2815V0.301147H9.62659L0 9.92774L5.39321 15.321L9.62659 11.1456Z" fill="#035171"/>
<path d="M17.2815 21.758H9.6266V41.0112H17.2815V21.758Z" fill="#035171"/>
</svg>
