<svg width="39" height="41" viewBox="0 0 39 41" fill="none" xmlns="http://www.w3.org/2000/svg">
<path d="M0 34.5351V30.3322H3.2513V8.92125V5.9475H7.8507V8.92125V30.3322H11.1416V34.5351H0ZM3.21165 4.9166V0H7.81105V4.9166H3.21165Z" fill="white"/>
<path d="M34.456 30.7287C32.9097 32.3543 31.0461 33.5042 28.9447 34.1782C29.817 34.5747 30.6893 35.0109 31.5616 35.447C32.4339 35.8832 33.1872 36.2797 33.782 36.6365L31.284 40.324C30.61 39.8878 29.817 39.412 28.8257 38.9362C27.8741 38.4208 26.9225 37.9846 25.9313 37.5485C24.9797 37.1123 24.1074 36.7555 23.354 36.4383C22.6007 36.1607 22.0852 36.0021 21.8077 36.0021C21.4112 36.0021 20.975 36.0814 20.4992 36.24C20.2613 36.3193 20.0234 36.4383 19.7062 36.5969C19.4287 36.7555 18.8736 37.1123 18.1599 37.6278L15.9791 34.4954C16.4153 34.1782 16.7325 33.9403 16.9307 33.8214C17.129 33.6628 17.3272 33.5438 17.4858 33.4249C16.1377 32.7905 14.9482 31.9182 13.838 30.7683C11.1022 27.9928 9.75409 24.464 9.75409 20.2611C9.75409 16.0582 11.1022 12.569 13.838 9.75382C16.5342 6.97832 19.9838 5.55092 24.147 5.55092C28.3103 5.55092 31.7202 6.93867 34.456 9.75382C37.1919 12.5293 38.54 16.0582 38.54 20.2611C38.5003 24.4243 37.1522 27.9135 34.456 30.7287ZM31.1254 12.7672C29.3015 10.864 26.9622 9.87277 24.147 9.87277C21.3319 9.87277 18.9925 10.864 17.1686 12.8069C15.3051 14.7101 14.3931 17.208 14.3931 20.2214C14.3931 23.2348 15.3051 25.7328 17.1686 27.636C19.0322 29.5788 21.3319 30.5701 24.147 30.5701C27.0018 30.5701 29.3412 29.6185 31.1254 27.6756C32.989 25.7328 33.9009 23.2348 33.9009 20.2214C33.9009 17.208 32.989 14.7497 31.1254 12.7672Z" fill="white"/>
</svg>
