<svg width="52" height="34" viewBox="0 0 52 34" fill="none" xmlns="http://www.w3.org/2000/svg">
<path d="M11.1305 0.185181C17.6944 0.185181 21 5.61182 21 11.0385C21 16.4651 17.6944 21.854 11.1305 21.854H4.96128C4.67256 21.854 4.43687 22.1055 4.43687 22.4136V28.4502C4.43687 31.0661 2.45118 33.1852 0 33.1852V0.744822C0 0.436705 0.23569 0.185181 0.524411 0.185181H11.1305ZM11.1305 17.2134C14.8249 17.2134 16.6515 14.1511 16.6515 11.0888C16.6515 7.98244 14.8249 4.92013 11.1305 4.92013H4.96128C4.67256 4.92013 4.43687 5.17165 4.43687 5.47977V16.6537C4.43687 16.9619 4.67256 17.2134 4.96128 17.2134H11.1305Z" fill="#4D3488"/>
<path d="M28.1861 5.03124C30.7386 2.09328 34.3404 0.185181 38.3109 0.185181C44.7886 0.185181 49.9332 4.54474 51.7767 11.4948C51.8731 11.8549 51.6292 12.215 51.2889 12.215H48.1181C47.9083 12.215 47.7211 12.076 47.6473 11.8612C46.0421 7.20471 42.514 4.85434 38.3052 4.85434C35.5032 4.85434 32.9507 6.20643 31.1072 8.3483C29.2638 10.4902 28.0953 13.3839 28.0953 16.7389C28.0953 19.9991 29.2695 22.8928 31.1072 25.0347C32.9507 27.1766 35.5032 28.5287 38.3052 28.5287C42.6331 28.5287 46.32 25.8245 47.8969 21.1048C47.9706 20.8836 48.1578 20.7446 48.3677 20.7446H51.4931C51.8277 20.7446 52.0716 21.1048 51.9809 21.4586C50.1318 28.4781 44.902 33.1852 38.3052 33.1852C34.329 33.1852 30.7329 31.3213 28.1804 28.3391C25.6733 25.3569 24 21.2564 24 16.7326C24 12.114 25.6733 8.01344 28.1861 5.03124Z" fill="#4D3488"/>
</svg>
