<svg width="83" height="25" viewBox="0 0 83 25" fill="none" xmlns="http://www.w3.org/2000/svg">
<path d="M36.4396 18.0518C37.4493 18.0518 37.9082 18.4963 37.9082 19.4741V22.5852C37.9082 23.6518 37.4493 24.1852 36.4396 24.1852H6.24155C2.2029 24.1852 0.0917874 22.4074 0 18.9407V5.42963C0.550725 2.14074 2.66184 0.362958 6.24155 0.185181H36.4396C37.4493 0.185181 37.9082 0.718514 37.9082 1.87407V4.62963C37.9082 5.6074 37.4493 6.14074 36.4396 6.14074H11.9324C10.7391 6.14074 10.1884 6.67407 10.1884 7.82963C10.1884 8.8074 10.7391 9.25185 11.9324 9.25185H36.3478C37.4493 9.25185 38 9.78518 38 10.8518V13.5185C38 14.4074 37.5411 14.9407 36.5314 14.9407H11.8406C10.7391 14.9407 10.1884 15.4741 10.1884 16.6296C10.1884 17.6074 10.7391 18.0518 11.8406 18.0518H36.4396Z" fill="white"/>
<path d="M43 19.8296V1.96296C43 0.896292 43.7459 0.27407 45.2378 0.185181H50.1795C51.2051 0.185181 51.7646 0.807403 51.951 1.96296V14.9407C51.951 15.9185 52.0443 16.5407 52.1375 16.8963C52.1375 16.9852 52.2308 17.0741 52.324 17.0741C52.5105 17.0741 52.8835 16.7185 53.4429 16.0074L71.2517 0.185181H81.9744C82.7203 0.185181 83 0.362958 83 0.718514C83 0.985181 82.8135 1.42963 82.3473 1.87407L70.8788 12.363L82.3473 22.4963C82.8135 23.0296 83 23.3852 83 23.6518C83 24.0074 82.627 24.1852 81.9744 24.1852H71.2517L64.6317 18.2296L61.9277 19.9185C58.7576 22.763 55.5874 24.1852 52.5105 24.1852H48.5944C44.958 24.1852 43 22.763 43 19.8296Z" fill="white"/>
</svg>
