<svg width="57" height="30" viewBox="0 0 57 30" fill="none" xmlns="http://www.w3.org/2000/svg">
<mask id="mask0" style="mask-type:alpha" maskUnits="userSpaceOnUse" x="0" y="0" width="57" height="30">
<rect width="57" height="30" fill="#C4C4C4"/>
</mask>
<g mask="url(#mask0)">
<path d="M2.44683 25.4185V26.0205H0.912119V26.9759H2.10718V27.5584H0.912119V28.54H2.44683V29.142H0.169922V25.4185H2.44683Z" fill="#F6BD23"/>
<path d="M2.55957 26.4985H3.12564C3.17596 26.4985 3.2137 26.5116 3.25143 26.5313C3.28288 26.5574 3.30804 26.5836 3.32062 26.6229L3.74832 27.9317C3.77348 28.0233 3.79864 28.1084 3.8238 28.1935C3.84266 28.2786 3.86153 28.3636 3.8804 28.4487C3.89927 28.3636 3.91814 28.2786 3.9433 28.1935C3.96846 28.1084 3.99362 28.0233 4.01878 27.9317L4.45905 26.6229C4.47163 26.5836 4.4905 26.5574 4.52824 26.5313C4.55969 26.5051 4.59743 26.4985 4.64145 26.4985H5.18237L4.18231 29.1424H3.56592L2.55957 26.4985Z" fill="#F6BD23"/>
<path d="M7.08137 29.1421C7.01847 29.1421 6.96815 29.1356 6.9367 29.1159C6.90525 29.0963 6.87381 29.057 6.85494 28.9982L6.79833 28.8345C6.73543 28.8934 6.67253 28.9458 6.60964 28.9851C6.54674 29.0309 6.49013 29.0636 6.42095 29.0963C6.35805 29.129 6.28886 29.1487 6.21339 29.1618C6.13791 29.1748 6.05614 29.1879 5.96809 29.1879C5.85487 29.1879 5.75424 29.1748 5.65989 29.1421C5.56554 29.1094 5.49007 29.0636 5.42088 29.0047C5.35169 28.9458 5.30138 28.8673 5.26364 28.7756C5.2259 28.684 5.20703 28.5793 5.20703 28.4615C5.20703 28.3634 5.23219 28.2652 5.27622 28.167C5.32654 28.0689 5.4083 27.9838 5.52152 27.9053C5.63473 27.8267 5.79197 27.7613 5.98696 27.7089C6.18194 27.6566 6.42095 27.6239 6.71656 27.6173V27.4799C6.71656 27.3163 6.68511 27.1919 6.61593 27.1134C6.54674 27.0349 6.45239 26.9956 6.3266 26.9956C6.23225 26.9956 6.15678 27.0087 6.09388 27.0283C6.03098 27.0545 5.97438 27.0741 5.93035 27.1003C5.88632 27.1265 5.84229 27.1527 5.79826 27.1723C5.75424 27.1985 5.71021 27.205 5.6536 27.205C5.60328 27.205 5.56554 27.1919 5.5341 27.1658C5.50265 27.1396 5.47749 27.1134 5.45233 27.0741L5.33283 26.8451C5.48378 26.7077 5.64731 26.603 5.82971 26.531C6.01211 26.459 6.2071 26.4263 6.41466 26.4263C6.56561 26.4263 6.70398 26.4524 6.82349 26.5048C6.94299 26.5572 7.04363 26.6291 7.12539 26.7208C7.20716 26.8124 7.27006 26.9236 7.31409 27.048C7.35811 27.1723 7.38327 27.3163 7.38327 27.4668V29.129H7.08137V29.1421ZM6.18194 28.7037C6.29515 28.7037 6.3895 28.684 6.47755 28.6382C6.55932 28.599 6.64738 28.5335 6.72914 28.4419V28.0296C6.56561 28.0361 6.42724 28.0492 6.31402 28.0754C6.20081 28.095 6.11904 28.1278 6.04985 28.1605C5.98067 28.1932 5.93664 28.2325 5.91148 28.2783C5.88632 28.3241 5.87374 28.3699 5.87374 28.4223C5.87374 28.527 5.8989 28.599 5.95551 28.6382C6.00582 28.684 6.08759 28.7037 6.18194 28.7037Z" fill="#F6BD23"/>
<path d="M8.61038 25.3135V29.1417H7.9248V25.3135H8.61038Z" fill="#F6BD23"/>
<path d="M9.83012 26.4985V28.1804C9.83012 28.3244 9.86156 28.4422 9.92446 28.5207C9.98736 28.5992 10.088 28.645 10.2138 28.645C10.3081 28.645 10.3962 28.6254 10.4842 28.5796C10.566 28.5338 10.6478 28.4749 10.7233 28.4029V26.4985H11.4026V29.1424H10.9811C10.8931 29.1424 10.8365 29.1031 10.8113 29.0181L10.7673 28.8348C10.6667 28.9395 10.5534 29.0246 10.4339 29.09C10.3144 29.1555 10.1698 29.1882 10.0062 29.1882C9.86785 29.1882 9.74206 29.162 9.63513 29.1162C9.52821 29.0639 9.44015 28.9984 9.36467 28.9068C9.2892 28.8152 9.23888 28.7105 9.20114 28.5861C9.1634 28.4618 9.14453 28.3309 9.14453 28.1804V26.4985H9.83012V26.4985Z" fill="#F6BD23"/>
<path d="M13.6536 29.1421C13.5907 29.1421 13.5404 29.1356 13.509 29.1159C13.4775 29.0963 13.4461 29.057 13.4272 28.9982L13.3706 28.8345C13.3077 28.8934 13.2448 28.9458 13.1819 28.9851C13.119 29.0309 13.0624 29.0636 12.9932 29.0963C12.9303 29.129 12.8611 29.1487 12.7857 29.1618C12.7102 29.1748 12.6284 29.1879 12.5404 29.1879C12.4271 29.1879 12.3265 29.1748 12.2322 29.1421C12.1378 29.1094 12.0623 29.0636 11.9931 29.0047C11.924 28.9458 11.8736 28.8673 11.8359 28.7756C11.7982 28.684 11.7793 28.5793 11.7793 28.4615C11.7793 28.3634 11.8045 28.2652 11.8485 28.167C11.8988 28.0689 11.9806 27.9838 12.0938 27.9053C12.207 27.8267 12.3642 27.7613 12.5592 27.7089C12.7542 27.6566 12.9932 27.6239 13.2888 27.6173V27.4799C13.2888 27.3163 13.2574 27.1919 13.1882 27.1134C13.119 27.0349 13.0247 26.9956 12.8989 26.9956C12.8045 26.9956 12.729 27.0087 12.6661 27.0283C12.6032 27.0545 12.5466 27.0741 12.5026 27.1003C12.4586 27.1265 12.4146 27.1527 12.3705 27.1723C12.3265 27.1985 12.2825 27.205 12.2259 27.205C12.1755 27.205 12.1378 27.1919 12.1064 27.1658C12.0749 27.1396 12.0498 27.1134 12.0246 27.0741L11.9051 26.8451C12.056 26.7077 12.2196 26.603 12.402 26.531C12.5844 26.459 12.7794 26.4263 12.9869 26.4263C13.1379 26.4263 13.2762 26.4524 13.3958 26.5048C13.5153 26.5572 13.6159 26.6291 13.6977 26.7208C13.7794 26.8124 13.8423 26.9236 13.8864 27.048C13.9304 27.1723 13.9555 27.3163 13.9555 27.4668V29.129H13.6536V29.1421ZM12.7542 28.7037C12.8674 28.7037 12.9618 28.684 13.0498 28.6382C13.1316 28.599 13.2196 28.5335 13.3014 28.4419V28.0296C13.1379 28.0361 12.9995 28.0492 12.8863 28.0754C12.7731 28.095 12.6913 28.1278 12.6221 28.1605C12.5529 28.1932 12.5089 28.2325 12.4837 28.2783C12.4586 28.3241 12.446 28.3699 12.446 28.4223C12.446 28.527 12.4712 28.599 12.5278 28.6382C12.5844 28.684 12.6599 28.7037 12.7542 28.7037Z" fill="#F6BD23"/>
<path d="M16.3412 27.087C16.3223 27.1132 16.3035 27.1329 16.2846 27.1525C16.2657 27.1656 16.2343 27.1721 16.2028 27.1721C16.1714 27.1721 16.1399 27.159 16.1085 27.1394C16.077 27.1198 16.0456 27.1001 16.0016 27.074C15.9638 27.0478 15.9135 27.0281 15.8632 27.0085C15.8066 26.9889 15.7437 26.9758 15.6619 26.9758C15.5613 26.9758 15.4732 26.9954 15.3977 27.0347C15.3223 27.074 15.2594 27.1263 15.209 27.1983C15.1587 27.2703 15.121 27.3554 15.1021 27.4601C15.077 27.5648 15.0644 27.676 15.0644 27.8069C15.0644 28.0752 15.1147 28.2847 15.2216 28.4286C15.3285 28.5726 15.4669 28.6446 15.6493 28.6446C15.7122 28.6446 15.7625 28.638 15.8129 28.625C15.8569 28.6119 15.8946 28.5988 15.9324 28.5857C15.9638 28.5661 15.9953 28.553 16.0204 28.5268C16.0456 28.5072 16.0707 28.4875 16.0896 28.4679C16.1148 28.4483 16.1336 28.4352 16.1588 28.4286C16.184 28.4155 16.2091 28.409 16.2343 28.409C16.2846 28.409 16.3286 28.4286 16.3601 28.4679L16.5551 28.7231C16.4796 28.8082 16.4041 28.8802 16.3223 28.9391C16.2406 28.998 16.1525 29.0438 16.0645 29.0765C15.9764 29.1092 15.8883 29.1354 15.794 29.1485C15.7059 29.1616 15.6116 29.1681 15.5235 29.1681C15.3663 29.1681 15.2216 29.1354 15.077 29.0765C14.9386 29.0176 14.8128 28.926 14.7121 28.8082C14.6052 28.6904 14.5235 28.5464 14.4606 28.3763C14.3977 28.2061 14.3662 28.0163 14.3662 27.7938C14.3662 27.5975 14.3914 27.4208 14.448 27.2572C14.5046 27.0936 14.5801 26.9496 14.687 26.8253C14.7939 26.7009 14.9197 26.6093 15.077 26.5373C15.2342 26.4653 15.4103 26.4326 15.6179 26.4326C15.8129 26.4326 15.9827 26.4653 16.1274 26.5308C16.272 26.5962 16.4041 26.6878 16.5236 26.8122L16.3412 27.087Z" fill="#F6BD23"/>
<path d="M17.6676 25.7454C17.6676 25.8043 17.655 25.8632 17.6361 25.909C17.611 25.9613 17.5795 26.0071 17.5418 26.0464C17.5041 26.0857 17.46 26.1184 17.4034 26.138C17.3531 26.1576 17.2965 26.1707 17.2399 26.1707C17.1833 26.1707 17.133 26.1576 17.0826 26.138C17.0323 26.1184 16.9883 26.0857 16.9506 26.0464C16.9128 26.0071 16.8814 25.9613 16.8625 25.909C16.8373 25.8566 16.8311 25.8043 16.8311 25.7454C16.8311 25.6865 16.8436 25.6276 16.8625 25.5752C16.8877 25.5229 16.9128 25.4771 16.9506 25.4378C16.9883 25.3985 17.0323 25.3658 17.0826 25.3462C17.133 25.3266 17.1833 25.3135 17.2399 25.3135C17.2965 25.3135 17.3531 25.3266 17.4034 25.3462C17.4537 25.3658 17.4978 25.3985 17.5418 25.4378C17.5795 25.4771 17.611 25.5229 17.6361 25.5752C17.655 25.6276 17.6676 25.6799 17.6676 25.7454ZM17.5858 26.4979V29.1417H16.9065V26.4979H17.5858Z" fill="#F6BD23"/>
<path d="M19.3159 26.4521C19.5046 26.4521 19.6807 26.4848 19.8379 26.5503C19.9952 26.6157 20.1273 26.7008 20.2405 26.8186C20.3537 26.9364 20.4418 27.0803 20.4984 27.2439C20.5613 27.4141 20.5927 27.6039 20.5927 27.8133C20.5927 28.0227 20.5613 28.2124 20.4984 28.3826C20.4355 28.5527 20.3537 28.6967 20.2405 28.8145C20.1273 28.9323 19.9952 29.0239 19.8379 29.0893C19.6807 29.1548 19.5109 29.1875 19.3159 29.1875C19.1209 29.1875 18.9511 29.1548 18.7938 29.0893C18.6366 29.0239 18.5045 28.9323 18.3913 28.8145C18.2781 28.6967 18.19 28.5527 18.1334 28.3826C18.0705 28.2124 18.0391 28.0227 18.0391 27.8133C18.0391 27.6039 18.0705 27.4141 18.1334 27.2439C18.1963 27.0738 18.2844 26.9364 18.3913 26.8186C18.5045 26.7008 18.6366 26.6092 18.7938 26.5503C18.9511 26.4848 19.1209 26.4521 19.3159 26.4521ZM19.3159 28.6509C19.5109 28.6509 19.6555 28.5789 19.7499 28.4415C19.8442 28.3041 19.8883 28.0947 19.8883 27.8198C19.8883 27.545 19.8442 27.3421 19.7499 27.1981C19.6555 27.0607 19.5109 26.9887 19.3159 26.9887C19.1146 26.9887 18.97 27.0607 18.8756 27.1981C18.7813 27.3356 18.7372 27.545 18.7372 27.8198C18.7372 28.0947 18.7813 28.3041 18.8756 28.4415C18.97 28.5789 19.1146 28.6509 19.3159 28.6509ZM20.2279 25.3789L19.6052 26.0529C19.5738 26.0857 19.5423 26.1118 19.5109 26.1315C19.4794 26.1511 19.4354 26.1511 19.3851 26.1511H18.9762L19.3222 25.5229C19.3473 25.4771 19.3788 25.4378 19.4102 25.4182C19.4417 25.3985 19.4983 25.3854 19.5738 25.3854H20.2279V25.3789Z" fill="#F6BD23"/>
<path d="M21.0205 29.1413V26.4975H21.4419C21.53 26.4975 21.5866 26.5367 21.6117 26.6218L21.6558 26.805C21.7061 26.7527 21.7627 26.7069 21.813 26.6611C21.8696 26.6153 21.9262 26.5825 21.9891 26.5498C22.052 26.5171 22.1149 26.4975 22.1904 26.4778C22.2596 26.4582 22.3414 26.4517 22.4231 26.4517C22.5615 26.4517 22.681 26.4778 22.7879 26.5236C22.8949 26.576 22.9829 26.6414 23.0584 26.7331C23.1339 26.8247 23.1842 26.9294 23.2219 27.0537C23.2597 27.1781 23.2785 27.3089 23.2785 27.4595V29.1413H22.5992V27.4595C22.5992 27.3155 22.5678 27.1977 22.4986 27.1192C22.4357 27.0406 22.3351 26.9948 22.2093 26.9948C22.1149 26.9948 22.0206 27.0145 21.9388 27.0603C21.857 27.1061 21.7753 27.165 21.6998 27.237V29.1413H21.0205V29.1413Z" fill="#F6BD23"/>
<path d="M26.8193 29.1416C26.7312 29.1416 26.6746 29.1023 26.6495 29.0172L26.5929 28.7882C26.4922 28.906 26.3727 28.9976 26.2469 29.0696C26.1148 29.1416 25.9639 29.1808 25.7878 29.1808C25.6494 29.1808 25.5236 29.1481 25.4104 29.0892C25.2972 29.0303 25.1965 28.9387 25.1148 28.8275C25.033 28.7097 24.9701 28.5722 24.9198 28.4021C24.8757 28.232 24.8506 28.0422 24.8506 27.8262C24.8506 27.6299 24.8757 27.4467 24.9261 27.2765C24.9764 27.1064 25.0519 26.9624 25.1462 26.8381C25.2406 26.7137 25.3538 26.6156 25.4921 26.5501C25.6242 26.4781 25.7752 26.4454 25.9387 26.4454C26.0771 26.4454 26.1903 26.465 26.2847 26.5109C26.379 26.5567 26.4671 26.609 26.5425 26.6875V25.3198H27.2218V29.1481H26.8193V29.1416ZM26.0268 28.6311C26.1463 28.6311 26.2469 28.605 26.3287 28.5592C26.4105 28.5133 26.4859 28.4414 26.5614 28.3497V27.1849C26.4985 27.1064 26.4293 27.054 26.3538 27.0213C26.2784 26.9886 26.1966 26.9755 26.1148 26.9755C26.0331 26.9755 25.9576 26.9886 25.8884 27.0213C25.8192 27.054 25.7626 27.1064 25.7123 27.1718C25.662 27.2438 25.6242 27.3289 25.5991 27.4401C25.5739 27.5448 25.5613 27.6757 25.5613 27.8262C25.5613 27.9702 25.5739 28.1011 25.5928 28.1992C25.6117 28.2974 25.6431 28.3825 25.6871 28.4479C25.7312 28.5133 25.7752 28.5592 25.8318 28.5853C25.8884 28.6181 25.9576 28.6311 26.0268 28.6311Z" fill="#F6BD23"/>
<path d="M28.9086 26.4517C29.0721 26.4517 29.2231 26.4778 29.3614 26.5302C29.4998 26.5825 29.6193 26.6611 29.7137 26.7658C29.8143 26.8705 29.8898 26.9948 29.9464 27.1453C30.003 27.2959 30.0281 27.466 30.0281 27.6558C30.0281 27.7081 30.0281 27.7539 30.0219 27.7867C30.0156 27.8194 30.0093 27.8456 29.9967 27.8717C29.9841 27.8914 29.9715 27.9045 29.9527 27.911C29.9338 27.9175 29.9086 27.9241 29.8772 27.9241H28.3488C28.3677 28.1728 28.4368 28.356 28.5501 28.4672C28.6633 28.585 28.8142 28.6374 29.0029 28.6374C29.0973 28.6374 29.179 28.6243 29.2482 28.6047C29.3174 28.585 29.374 28.5589 29.4306 28.5261C29.4809 28.5 29.5313 28.4738 29.569 28.4476C29.6067 28.4214 29.6508 28.4149 29.6948 28.4149C29.7451 28.4149 29.7891 28.4345 29.8206 28.4738L30.0156 28.729C29.9401 28.8141 29.8646 28.8861 29.7766 28.945C29.6885 29.0039 29.6004 29.0497 29.5061 29.0824C29.4118 29.1151 29.3174 29.1413 29.2231 29.1544C29.1287 29.1675 29.0344 29.174 28.9463 29.174C28.7702 29.174 28.6004 29.1413 28.4494 29.0824C28.2985 29.0235 28.1601 28.9319 28.0469 28.8141C27.9337 28.6963 27.8456 28.5458 27.7764 28.3691C27.7135 28.1924 27.6758 27.9895 27.6758 27.7539C27.6758 27.5772 27.7072 27.4071 27.7638 27.2435C27.8204 27.0864 27.9022 26.949 28.0091 26.8247C28.1161 26.7069 28.2481 26.6153 28.3991 26.5433C28.5438 26.4909 28.7136 26.4517 28.9086 26.4517ZM28.9212 26.949C28.7576 26.949 28.6318 26.9948 28.5375 27.093C28.4431 27.1911 28.3865 27.3286 28.3551 27.5053H29.418C29.418 27.4333 29.4055 27.3613 29.3866 27.2959C29.3677 27.2304 29.3363 27.1715 29.2985 27.1192C29.2608 27.0668 29.2042 27.0275 29.1413 26.9948C29.0847 26.9686 29.0092 26.949 28.9212 26.949Z" fill="#F6BD23"/>
<path d="M33.455 29.1416C33.3669 29.1416 33.3103 29.1023 33.2852 29.0172L33.2286 28.7882C33.1279 28.906 33.0084 28.9976 32.8826 29.0696C32.7506 29.1416 32.5996 29.1808 32.4235 29.1808C32.2851 29.1808 32.1593 29.1481 32.0461 29.0892C31.9329 29.0303 31.8323 28.9387 31.7505 28.8275C31.6687 28.7097 31.6058 28.5722 31.5555 28.4021C31.5115 28.232 31.4863 28.0422 31.4863 27.8262C31.4863 27.6299 31.5115 27.4467 31.5618 27.2765C31.6121 27.1064 31.6876 26.9624 31.7819 26.8381C31.8763 26.7137 31.9895 26.6156 32.1279 26.5501C32.26 26.4781 32.4109 26.4454 32.5744 26.4454C32.7128 26.4454 32.826 26.465 32.9204 26.5109C33.0147 26.5567 33.1028 26.609 33.1783 26.6875V25.3198H33.8575V29.1481H33.455V29.1416ZM32.6625 28.6311C32.782 28.6311 32.8826 28.605 32.9644 28.5592C33.0462 28.5133 33.1216 28.4414 33.1971 28.3497V27.1849C33.1342 27.1064 33.065 27.054 32.9896 27.0213C32.9141 26.9886 32.8323 26.9755 32.7506 26.9755C32.6688 26.9755 32.5933 26.9886 32.5241 27.0213C32.4549 27.054 32.3983 27.1064 32.348 27.1718C32.2977 27.2438 32.26 27.3289 32.2348 27.4401C32.2096 27.5448 32.1971 27.6757 32.1971 27.8262C32.1971 27.9702 32.2096 28.1011 32.2285 28.1992C32.2474 28.2974 32.2788 28.3825 32.3229 28.4479C32.3669 28.5133 32.4109 28.5592 32.4675 28.5853C32.5241 28.6181 32.587 28.6311 32.6625 28.6311Z" fill="#F6BD23"/>
<path d="M35.5424 26.4517C35.7059 26.4517 35.8568 26.4778 35.9952 26.5302C36.1336 26.5825 36.2531 26.6611 36.3475 26.7658C36.4481 26.8705 36.5236 26.9948 36.5802 27.1453C36.6368 27.2959 36.6619 27.466 36.6619 27.6558C36.6619 27.7081 36.6619 27.7539 36.6556 27.7867C36.6494 27.8194 36.6431 27.8456 36.6305 27.8717C36.6179 27.8914 36.6053 27.9045 36.5865 27.911C36.5676 27.9175 36.5424 27.9241 36.511 27.9241H34.9826C35.0014 28.1728 35.0706 28.356 35.1838 28.4672C35.2971 28.585 35.448 28.6374 35.6367 28.6374C35.7311 28.6374 35.8128 28.6243 35.882 28.6047C35.9512 28.585 36.0078 28.5589 36.0644 28.5261C36.1147 28.5 36.165 28.4738 36.2028 28.4476C36.2405 28.4214 36.2846 28.4149 36.3286 28.4149C36.3789 28.4149 36.4229 28.4345 36.4544 28.4738L36.6494 28.729C36.5739 28.8141 36.4984 28.8861 36.4103 28.945C36.3223 29.0039 36.2342 29.0497 36.1399 29.0824C36.0455 29.1151 35.9512 29.1413 35.8568 29.1544C35.7625 29.1675 35.6682 29.174 35.5801 29.174C35.404 29.174 35.2342 29.1413 35.0832 29.0824C34.9323 29.0235 34.7939 28.9319 34.6807 28.8141C34.5675 28.6963 34.4794 28.5458 34.4102 28.3691C34.3473 28.1924 34.3096 27.9895 34.3096 27.7539C34.3096 27.5772 34.341 27.4071 34.3976 27.2435C34.4542 27.0864 34.536 26.949 34.6429 26.8247C34.7499 26.7069 34.8819 26.6153 35.0329 26.5433C35.1776 26.4909 35.3474 26.4517 35.5424 26.4517ZM35.5549 26.949C35.3914 26.949 35.2656 26.9948 35.1713 27.093C35.0769 27.1911 35.0203 27.3286 34.9889 27.5053H36.0518C36.0518 27.4333 36.0393 27.3613 36.0204 27.2959C36.0015 27.2304 35.9701 27.1715 35.9323 27.1192C35.8946 27.0668 35.838 27.0275 35.7751 26.9948C35.7122 26.9686 35.643 26.949 35.5549 26.949Z" fill="#F6BD23"/>
<path d="M38.6639 27.0406C38.645 27.0668 38.6262 27.093 38.6073 27.1061C38.5884 27.1192 38.5633 27.1257 38.5318 27.1257C38.5004 27.1257 38.4626 27.1192 38.4312 27.0995C38.3997 27.0799 38.3557 27.0668 38.318 27.0472C38.2739 27.0275 38.2236 27.0079 38.1733 26.9948C38.1167 26.9752 38.0538 26.9687 37.9846 26.9687C37.8714 26.9687 37.7896 26.9948 37.7267 27.0406C37.6638 27.0864 37.6324 27.1519 37.6324 27.2239C37.6324 27.2762 37.6513 27.322 37.6827 27.3548C37.7142 27.3875 37.7645 27.4202 37.8211 27.4464C37.8777 27.4726 37.9406 27.4987 38.0161 27.5184C38.0853 27.5445 38.1607 27.5642 38.2362 27.5969C38.3117 27.6231 38.3872 27.6558 38.4564 27.6951C38.5255 27.7343 38.5947 27.7736 38.6513 27.8325C38.7079 27.8914 38.752 27.9503 38.7897 28.0288C38.8212 28.1073 38.84 28.199 38.84 28.3037C38.84 28.4345 38.8149 28.5523 38.7708 28.6571C38.7268 28.7683 38.6576 28.8599 38.5696 28.9385C38.4815 29.017 38.3746 29.0759 38.2425 29.1217C38.1104 29.1675 37.9657 29.1871 37.7959 29.1871C37.7079 29.1871 37.6198 29.1806 37.538 29.161C37.45 29.1479 37.3682 29.1217 37.2927 29.089C37.2173 29.0562 37.1418 29.0235 37.0726 28.9843C37.0034 28.945 36.9468 28.8992 36.8965 28.8534L37.0537 28.5916C37.0726 28.5589 37.0915 28.5393 37.1229 28.5196C37.1481 28.5 37.1858 28.4934 37.2298 28.4934C37.2739 28.4934 37.3116 28.5065 37.3431 28.5262C37.3745 28.5458 37.4185 28.572 37.4563 28.5982C37.5003 28.6243 37.5506 28.644 37.6072 28.6701C37.6638 28.6898 37.7393 28.7029 37.8274 28.7029C37.8903 28.7029 37.9469 28.6963 37.9972 28.6767C38.0475 28.6636 38.0853 28.6374 38.1104 28.6112C38.1419 28.5851 38.1607 28.5523 38.1733 28.5196C38.1859 28.4869 38.1922 28.4542 38.1922 28.4149C38.1922 28.356 38.1733 28.3102 38.1419 28.2709C38.1041 28.2317 38.0601 28.199 38.0035 28.1728C37.9469 28.1466 37.884 28.1204 37.8085 28.1008C37.733 28.0812 37.6575 28.055 37.5821 28.0288C37.5066 28.0026 37.4311 27.9699 37.3556 27.9306C37.2802 27.8914 37.2173 27.8456 37.1607 27.7867C37.104 27.7278 37.06 27.6558 37.0223 27.5773C36.9845 27.4922 36.972 27.394 36.972 27.2697C36.972 27.1584 36.9908 27.0537 37.0349 26.9556C37.0789 26.8574 37.1355 26.7723 37.2173 26.6938C37.299 26.6153 37.3997 26.5564 37.5255 26.5171C37.645 26.4713 37.7896 26.4517 37.9532 26.4517C38.1356 26.4517 38.2991 26.4844 38.4438 26.5433C38.5884 26.6022 38.7142 26.6873 38.8086 26.7854L38.6639 27.0406Z" fill="#F6BD23"/>
<path d="M40.3685 26.4517C40.5321 26.4517 40.683 26.4778 40.8214 26.5302C40.9598 26.5825 41.0793 26.6611 41.1736 26.7658C41.2743 26.8705 41.3497 26.9948 41.4063 27.1453C41.463 27.2959 41.4881 27.466 41.4881 27.6558C41.4881 27.7081 41.4881 27.7539 41.4818 27.7867C41.4755 27.8194 41.4692 27.8456 41.4567 27.8717C41.4441 27.8914 41.4315 27.9045 41.4126 27.911C41.3938 27.9175 41.3686 27.9241 41.3372 27.9241H39.8087C39.8276 28.1728 39.8968 28.356 40.01 28.4672C40.1232 28.585 40.2742 28.6374 40.4629 28.6374C40.5572 28.6374 40.639 28.6243 40.7082 28.6047C40.7774 28.585 40.834 28.5589 40.8906 28.5261C40.9409 28.5 40.9912 28.4738 41.029 28.4476C41.0667 28.4214 41.1107 28.4149 41.1548 28.4149C41.2051 28.4149 41.2491 28.4345 41.2805 28.4738L41.4755 28.729C41.4001 28.8141 41.3246 28.8861 41.2365 28.945C41.1485 29.0039 41.0604 29.0497 40.9661 29.0824C40.8717 29.1151 40.7774 29.1413 40.683 29.1544C40.5887 29.1675 40.4943 29.174 40.4063 29.174C40.2302 29.174 40.0603 29.1413 39.9094 29.0824C39.7584 29.0235 39.6201 28.9319 39.5068 28.8141C39.3936 28.6963 39.3056 28.5458 39.2364 28.3691C39.1735 28.1924 39.1357 27.9895 39.1357 27.7539C39.1357 27.5772 39.1672 27.4071 39.2238 27.2435C39.2804 27.0864 39.3622 26.949 39.4691 26.8247C39.576 26.7069 39.7081 26.6153 39.8591 26.5433C40.0037 26.4909 40.1798 26.4517 40.3685 26.4517ZM40.3811 26.949C40.2176 26.949 40.0918 26.9948 39.9974 27.093C39.9031 27.1911 39.8465 27.3286 39.815 27.5053H40.878C40.878 27.4333 40.8654 27.3613 40.8466 27.2959C40.8277 27.2304 40.7962 27.1715 40.7585 27.1192C40.7208 27.0668 40.6642 27.0275 40.6013 26.9948C40.5446 26.9686 40.4692 26.949 40.3811 26.949Z" fill="#F6BD23"/>
<path d="M41.9082 29.1426V26.4987H42.3296C42.4177 26.4987 42.4743 26.538 42.4994 26.6231L42.5372 26.7932C42.5812 26.7474 42.6252 26.7016 42.6756 26.6623C42.7259 26.6231 42.7699 26.5838 42.8265 26.5576C42.8831 26.5249 42.9397 26.5053 43.0026 26.4856C43.0655 26.466 43.1347 26.4595 43.2102 26.4595C43.3674 26.4595 43.4932 26.5053 43.6002 26.5904C43.7071 26.6754 43.7763 26.7932 43.8329 26.9372C43.8769 26.8521 43.9272 26.7801 43.9838 26.7212C44.0467 26.6623 44.1096 26.61 44.1788 26.5707C44.248 26.5315 44.3235 26.5053 44.4052 26.4856C44.487 26.466 44.5625 26.4595 44.6443 26.4595C44.7889 26.4595 44.9147 26.4791 45.0216 26.5249C45.1349 26.5707 45.2229 26.6362 45.2984 26.7212C45.3739 26.8063 45.4305 26.911 45.4682 27.0354C45.506 27.1597 45.5248 27.3037 45.5248 27.4607V29.1426H44.8455V27.4607C44.8455 27.1532 44.7197 26.9961 44.4618 26.9961C44.4052 26.9961 44.3486 27.0092 44.3046 27.0288C44.2543 27.0485 44.2103 27.0812 44.1788 27.1204C44.1411 27.1597 44.1159 27.2055 44.0908 27.2644C44.0719 27.3233 44.0593 27.3888 44.0593 27.4673V29.1492H43.38V27.4673C43.38 27.2971 43.3486 27.1793 43.2857 27.1074C43.2228 27.0354 43.1284 27.0026 43.0026 27.0026C42.9209 27.0026 42.8517 27.0223 42.7825 27.0615C42.7133 27.1008 42.6441 27.1532 42.5875 27.2252V29.1557H41.9082V29.1426Z" fill="#F6BD23"/>
<path d="M46.0713 29.9995V26.4984H46.4927C46.5808 26.4984 46.6374 26.5376 46.6625 26.6227L46.7128 26.8452C46.7632 26.7863 46.8198 26.7339 46.8764 26.6816C46.933 26.6292 46.9959 26.59 47.0588 26.5572C47.1217 26.5245 47.1972 26.4918 47.2726 26.4722C47.3481 26.4525 47.4299 26.4395 47.5179 26.4395C47.6563 26.4395 47.7821 26.4722 47.8953 26.5311C48.0085 26.59 48.1092 26.6816 48.1909 26.7928C48.2727 26.9106 48.3356 27.0481 48.3859 27.2182C48.4299 27.3884 48.4551 27.5781 48.4551 27.7941C48.4551 27.9904 48.4299 28.1737 48.3796 28.3438C48.3293 28.514 48.2538 28.6579 48.1595 28.7823C48.0651 28.9066 47.9519 29.0048 47.8135 29.0702C47.6815 29.1422 47.5305 29.1749 47.367 29.1749C47.2286 29.1749 47.1091 29.1553 47.0148 29.1095C46.9204 29.0637 46.8323 29.0113 46.7569 28.9328V29.9864H46.0713V29.9995ZM47.2852 26.9957C47.1657 26.9957 47.0651 27.0219 46.9833 27.0677C46.9015 27.12 46.8261 27.1855 46.7506 27.2837V28.442C46.8135 28.5205 46.8827 28.5729 46.9581 28.6056C47.0336 28.6383 47.1154 28.6514 47.1972 28.6514C47.2789 28.6514 47.3544 28.6383 47.4236 28.6056C47.4928 28.5729 47.5494 28.5205 47.5997 28.4551C47.65 28.3831 47.6878 28.298 47.7129 28.1868C47.7381 28.082 47.7507 27.9512 47.7507 27.8006C47.7507 27.6567 47.7381 27.5258 47.7192 27.4276C47.694 27.3229 47.6689 27.2444 47.6249 27.1789C47.5871 27.1135 47.5368 27.0677 47.4802 27.0415C47.4236 27.0088 47.3544 26.9957 47.2852 26.9957Z" fill="#F6BD23"/>
<path d="M49.9906 26.4517C50.1541 26.4517 50.3051 26.4778 50.4434 26.5302C50.5818 26.5825 50.7013 26.6611 50.7957 26.7658C50.8963 26.8705 50.9718 26.9948 51.0284 27.1453C51.085 27.2959 51.1101 27.466 51.1101 27.6558C51.1101 27.7081 51.1101 27.7539 51.1038 27.7867C51.0976 27.8194 51.0913 27.8456 51.0787 27.8717C51.0661 27.8914 51.0535 27.9045 51.0347 27.911C51.0158 27.9175 50.9906 27.9241 50.9592 27.9241H49.4308C49.4497 28.1728 49.5189 28.356 49.6321 28.4672C49.7453 28.585 49.8962 28.6374 50.0849 28.6374C50.1793 28.6374 50.261 28.6243 50.3302 28.6047C50.3994 28.585 50.456 28.5589 50.5126 28.5261C50.5629 28.5 50.6133 28.4738 50.651 28.4476C50.6887 28.4214 50.7328 28.4149 50.7768 28.4149C50.8271 28.4149 50.8711 28.4345 50.9026 28.4738L51.0976 28.729C51.0221 28.8141 50.9466 28.8861 50.8586 28.945C50.7705 29.0039 50.6824 29.0497 50.5881 29.0824C50.4938 29.1151 50.3994 29.1413 50.3051 29.1544C50.2107 29.1675 50.1164 29.174 50.0283 29.174C49.8522 29.174 49.6824 29.1413 49.5314 29.0824C49.3805 29.0235 49.2421 28.9319 49.1289 28.8141C49.0157 28.6963 48.9276 28.5458 48.8584 28.3691C48.7955 28.1924 48.7578 27.9895 48.7578 27.7539C48.7578 27.5772 48.7893 27.4071 48.8459 27.2435C48.9025 27.0864 48.9842 26.949 49.0912 26.8247C49.1981 26.7069 49.3302 26.6153 49.4811 26.5433C49.6258 26.4909 49.8019 26.4517 49.9906 26.4517ZM50.0032 26.949C49.8396 26.949 49.7138 26.9948 49.6195 27.093C49.5252 27.1911 49.4685 27.3286 49.4371 27.5053H50.5063C50.5063 27.4333 50.4938 27.3613 50.4749 27.2959C50.456 27.2304 50.4246 27.1715 50.3868 27.1192C50.3491 27.0668 50.2925 27.0275 50.2296 26.9948C50.1667 26.9686 50.0912 26.949 50.0032 26.949Z" fill="#F6BD23"/>
<path d="M51.5312 29.1413V26.4975H51.9527C52.0407 26.4975 52.0973 26.5367 52.1225 26.6218L52.1665 26.805C52.2168 26.7527 52.2734 26.7069 52.3238 26.6611C52.3804 26.6152 52.437 26.5825 52.4999 26.5498C52.5628 26.5171 52.6257 26.4975 52.7011 26.4778C52.7703 26.4582 52.8521 26.4516 52.9339 26.4516C53.0722 26.4516 53.1917 26.4778 53.2987 26.5236C53.4056 26.576 53.4937 26.6414 53.5691 26.733C53.6446 26.8247 53.6949 26.9294 53.7327 27.0537C53.7704 27.178 53.7893 27.3089 53.7893 27.4594V29.1413H53.11V27.4594C53.11 27.3155 53.0785 27.1977 53.0093 27.1191C52.9464 27.0406 52.8458 26.9948 52.72 26.9948C52.6257 26.9948 52.5313 27.0144 52.4496 27.0602C52.3678 27.1061 52.286 27.165 52.2105 27.2369V29.1413H51.5312V29.1413ZM52.9402 25.6205C52.9842 25.6205 53.0219 25.6075 53.0471 25.5813C53.0722 25.5551 53.0848 25.5093 53.0848 25.4373H53.4999C53.4999 25.5355 53.4874 25.6271 53.4622 25.7122C53.437 25.7972 53.3993 25.8627 53.349 25.9216C53.2987 25.9805 53.2421 26.0263 53.1792 26.0525C53.1163 26.0852 53.0408 26.0983 52.9653 26.0983C52.9087 26.0983 52.8521 26.0852 52.8018 26.0655C52.7515 26.0459 52.7011 26.0197 52.6571 25.9936C52.6131 25.9674 52.5691 25.9477 52.5313 25.9216C52.4936 25.9019 52.4621 25.8889 52.4307 25.8889C52.3867 25.8889 52.3489 25.9019 52.3238 25.9281C52.2986 25.9543 52.286 26.0066 52.286 26.0786H51.8646C51.8646 25.9805 51.8772 25.8889 51.9023 25.8038C51.9275 25.7187 51.9652 25.6533 52.0156 25.5944C52.0659 25.5355 52.1225 25.4897 52.1854 25.4569C52.2483 25.4242 52.3238 25.4111 52.3992 25.4111C52.4621 25.4111 52.5187 25.4242 52.5691 25.4439C52.6194 25.4635 52.6697 25.4897 52.7137 25.5158C52.7578 25.542 52.8018 25.5616 52.8332 25.5878C52.8773 25.6075 52.9087 25.6205 52.9402 25.6205Z" fill="#F6BD23"/>
<path d="M55.4829 26.4517C55.6716 26.4517 55.8477 26.4844 56.0049 26.5498C56.1622 26.6153 56.2943 26.7003 56.4075 26.8181C56.5207 26.9359 56.6088 27.0799 56.6654 27.2435C56.7283 27.4137 56.7597 27.6034 56.7597 27.8129C56.7597 28.0223 56.7283 28.212 56.6654 28.3822C56.6025 28.5523 56.5207 28.6963 56.4075 28.8141C56.2943 28.9319 56.1622 29.0235 56.0049 29.089C55.8477 29.1544 55.6779 29.1871 55.4829 29.1871C55.2879 29.1871 55.1181 29.1544 54.9608 29.089C54.8036 29.0235 54.6715 28.9319 54.5583 28.8141C54.4451 28.6963 54.357 28.5523 54.3004 28.3822C54.2375 28.212 54.2061 28.0223 54.2061 27.8129C54.2061 27.6034 54.2375 27.4137 54.3004 27.2435C54.3633 27.0734 54.4514 26.9359 54.5583 26.8181C54.6715 26.7003 54.8036 26.6087 54.9608 26.5498C55.1118 26.4844 55.2879 26.4517 55.4829 26.4517ZM55.4829 28.6505C55.6779 28.6505 55.8225 28.5785 55.9169 28.4411C56.0112 28.3037 56.0553 28.0943 56.0553 27.8194C56.0553 27.5445 56.0112 27.3417 55.9169 27.1977C55.8225 27.0603 55.6779 26.9883 55.4829 26.9883C55.2816 26.9883 55.1369 27.0603 55.0426 27.1977C54.9483 27.3351 54.9042 27.5445 54.9042 27.8194C54.9042 28.0943 54.9483 28.3037 55.0426 28.4411C55.1369 28.5785 55.2816 28.6505 55.4829 28.6505Z" fill="#F6BD23"/>
<path d="M55.1733 7.54655C54.6386 7.54655 54.1292 7.3306 53.7518 6.93141C52.9656 6.11342 52.9656 4.78499 53.7518 3.97353C54.1292 3.58089 54.6386 3.3584 55.1733 3.3584C55.7079 3.3584 56.2173 3.57435 56.5947 3.97353C57.3809 4.79153 57.3809 6.11996 56.5947 6.93141C56.2173 7.3306 55.7079 7.54655 55.1733 7.54655ZM55.1733 4.41198C54.9028 4.41198 54.6512 4.52323 54.4625 4.71955C54.0725 5.12527 54.0725 5.79276 54.4625 6.19849C54.8525 6.60421 55.494 6.60421 55.884 6.19849C56.274 5.79276 56.274 5.12527 55.884 4.71955C55.6953 4.51668 55.4437 4.41198 55.1733 4.41198Z" fill="#F6BD23"/>
<path d="M9.1201 22.3422H0.471729C0.213851 22.3422 0 22.1198 0 21.8514V19.5807C0 19.3124 0.213851 19.0899 0.471729 19.0899H7.49106C8.40307 19.0899 9.13268 18.9197 9.66102 18.5729C10.1956 18.2261 10.4598 17.624 10.4598 16.7602C10.4598 15.916 10.1831 15.314 9.62328 14.9606C9.06349 14.6072 8.35275 14.4305 7.49106 14.4305H1.89321C1.63533 14.4305 1.42148 14.208 1.42148 13.9397V11.6689C1.42148 11.4006 1.63533 11.1781 1.89321 11.1781H7.4093C8.30873 11.1781 9.03204 11.0211 9.57296 10.7004C10.1139 10.347 10.3906 9.75153 10.3906 8.90081C10.3906 7.34987 9.39685 6.57768 7.4093 6.57768H0.471729C0.213851 6.58422 0 6.36827 0 6.09342V3.82918C0 3.56088 0.213851 3.33838 0.471729 3.33838H8.73014C14.2022 3.33838 14.8123 7.00958 14.8123 8.4689C14.8123 9.05132 14.7117 9.60102 14.5104 10.118C14.3091 10.635 14.0072 11.1323 13.611 11.5969C13.2902 11.9765 12.9443 12.3233 12.5794 12.6375C12.4599 12.7422 12.4725 12.945 12.6046 13.0301C12.787 13.1544 12.9694 13.2788 13.1392 13.4031C13.3908 13.5994 13.6613 13.8546 13.9506 14.1818C14.2399 14.509 14.4538 14.954 14.5985 15.5168C14.7431 16.0796 14.8123 16.6555 14.8123 17.2379C14.8123 21.0727 12.0574 22.3422 9.1201 22.3422Z" fill="white"/>
<path d="M20.9068 11.1258C20.8942 11.2697 21.0011 11.4006 21.1395 11.4006H27.4355C29.3854 11.4006 30.9201 11.7867 32.0459 12.5524C33.1718 13.318 33.7379 14.6465 33.7379 16.5377V17.0939C33.7379 17.768 33.6246 18.3766 33.3919 18.9197C33.1655 19.4694 32.7504 20.0518 32.1466 20.6801C31.5427 21.3083 30.6622 21.786 29.5049 22.1263C28.3476 22.46 27.0896 22.6302 25.731 22.6302C24.8505 22.6302 23.8944 22.5517 22.8629 22.3946C21.8314 22.2376 20.8754 21.8842 20.0074 21.3345C19.1331 20.7848 18.4475 20.1107 17.938 19.2993C17.4286 18.4878 17.0575 17.5717 16.8185 16.5442C16.5795 15.5234 16.46 14.424 16.46 13.2591C16.46 12.9777 16.46 12.7094 16.46 12.4542C16.46 12.199 16.504 11.6231 16.5858 10.72C16.6675 9.81697 16.9568 8.83537 17.4349 7.76869C17.9192 6.70201 18.567 5.84474 19.391 5.20343C20.2149 4.56211 21.171 4.09094 22.2717 3.78992C23.3724 3.48889 24.6744 3.33838 26.1839 3.33838H32.2661C32.5239 3.33838 32.7378 3.56088 32.7378 3.82918V6.09342C32.7378 6.36172 32.5239 6.58422 32.2661 6.58422H26.0833C24.863 6.58422 23.9007 6.72819 23.2026 7.02267C22.4981 7.31061 21.9635 7.78832 21.5861 8.44927C21.2464 9.06441 21.02 9.9544 20.9068 11.1258ZM27.184 14.5941H21.1207C20.9886 14.5941 20.8816 14.7119 20.8816 14.8493C20.8942 15.242 20.932 15.6019 20.9949 15.9226C21.0703 16.3152 21.1961 16.7209 21.366 17.1463C21.5861 17.84 22.0704 18.3897 22.8252 18.8085C23.5799 19.2273 24.5674 19.4302 25.7876 19.4302C26.599 19.4302 27.3286 19.3255 27.9702 19.1095C28.4419 18.9852 28.8193 18.6907 29.0897 18.2326C29.3602 17.7745 29.4986 17.3033 29.4986 16.8256C29.4986 16.2236 29.3036 15.6935 28.9136 15.2289C28.5048 14.8101 27.9261 14.5941 27.184 14.5941Z" fill="white"/>
<path d="M44.3363 22.5317C41.7638 22.5317 39.3045 21.3865 37.5811 19.3971C34.4614 15.7848 34.518 10.1765 37.7195 6.63623C39.4492 4.71882 41.8015 3.65869 44.3363 3.65869C45.9716 3.65869 47.5692 4.11023 48.9655 4.97404L49.2297 5.13764L47.0157 7.44114L46.8648 7.36916C46.0785 6.99615 45.2043 6.79983 44.3363 6.79983C42.7198 6.79983 41.1977 7.45423 40.053 8.64524C38.8768 9.86898 38.2478 11.4919 38.2856 13.2261C38.317 14.9602 39.0089 16.557 40.2354 17.7349C41.3487 18.8081 42.8079 19.3971 44.3426 19.3971C45.8458 19.3971 47.2736 18.8278 48.3806 17.8003C50.821 15.523 51.0915 11.6882 48.997 9.07061C48.8397 8.87429 48.8523 8.58635 49.0221 8.40312L50.4877 6.87836C50.5757 6.78674 50.6952 6.73439 50.821 6.73439C50.9594 6.73439 51.0852 6.79328 51.1732 6.89799C54.2992 10.6215 54.1105 16.2756 50.7518 19.7766C49.041 21.5501 46.7641 22.5317 44.3363 22.5317C44.3426 22.5317 44.3426 22.5317 44.3363 22.5317Z" fill="white"/>
<path d="M50.4495 5.27624C50.4495 5.2697 50.4495 5.2697 50.4495 5.26315C50.4495 5.20426 50.4306 5.14536 50.3866 5.09955L50.3551 5.06683L45.5749 0.0934024C45.468 -0.0178454 45.3045 -0.0309334 45.2101 0.0606825L43.7446 1.58543C43.6503 1.68359 43.6629 1.85374 43.7761 1.96498L46.9524 5.2697L43.7824 8.58096C43.6754 8.6922 43.6629 8.86235 43.7509 8.96051L45.2164 10.4853C45.3108 10.5834 45.4743 10.5703 45.5812 10.4525L48.9274 6.97113L50.3614 5.47911L50.3929 5.44639C50.4369 5.40058 50.4558 5.34168 50.4558 5.28279C50.4495 5.28279 50.4495 5.28279 50.4495 5.27624Z" fill="white"/>
</g>
</svg>
